<svg version="1" xmlns="http://www.w3.org/2000/svg" width="346.667" height="346.667" viewBox="0 0 260.000000 260.000000"><path d="M0 130v130h260V0H0v130zm156.1-90.1c5.2 1.1 11.7 2.7 14.4 3.6 14.7 4.9 26.7 15.1 32.9 27.6 7.2 14.9 7 12.3 7.4 82.1l.3 62.8H158v-8c0-4.4-.2-8-.5-8s-3.8 2.5-7.8 5.5c-13.5 10.5-30.4 16.4-46.2 16.5-8.7 0-22-3.1-30-7.1-7.3-3.6-16.1-12-19.9-18.9-6-11-8.4-31.5-5.2-43.6 4.3-16.2 16.6-27.1 39.3-34.8 3.9-1.3 15.4-4.3 25.5-6.6 33-7.5 38.7-9.8 40.4-16.6 1.2-4.6-1.5-10.4-6.4-13.9-3.9-2.7-5.3-3-12.9-3.4-13.5-.5-21.4 4-24.4 13.9l-1.2 4H81.8C51 95 53.7 96.2 57 84.2c2.5-9.1 7.7-19.4 12.4-24.9 4.5-5.2 13.9-11.5 21.4-14.4 17.5-6.6 46.5-8.9 65.3-5z"/><path d="M134 141.8c-20.9 7.2-24.3 8.9-26.6 13.3-2.1 4.1-1.8 12.7.6 16.7 3.6 5.8 7.3 7.4 16.7 6.9 7-.3 9.2-.9 15.5-4 4-2 9-5.3 11.1-7.2l3.7-3.5v-14.5c0-8-.3-14.5-.7-14.4-.5 0-9.6 3-20.3 6.7z"/></svg>